<?xml version="1.0" encoding="UTF-8" standalone="no"?>
<!DOCTYPE svg PUBLIC "-//W3C//DTD SVG 1.1//EN" "http://www.w3.org/Graphics/SVG/1.1/DTD/svg11.dtd">
<svg width="100%" height="100%" viewBox="0 0 1064 355" version="1.1" xmlns="http://www.w3.org/2000/svg" xmlns:xlink="http://www.w3.org/1999/xlink" xml:space="preserve" xmlns:serif="http://www.serif.com/" style="fill-rule:evenodd;clip-rule:evenodd;stroke-linejoin:round;stroke-miterlimit:2;">
    <g transform="matrix(4.16667,0,0,4.16667,56.3417,303.498)">
        <path d="M0,2.691L-8.206,2.691L-8.206,12.024L-11.338,12.024L-11.338,-9.333L-8.206,-9.333L-8.206,-0.177L0,-0.177L0,-9.333L3.132,-9.333L3.132,12.024L0,12.024L0,2.691Z" style="fill:rgb(29,29,27);fill-rule:nonzero;"/>
    </g>
    <g transform="matrix(4.16667,0,0,4.16667,118.722,316.88)">
        <path d="M0,2.365L-3.553,2.365C-5.278,2.404 -6.131,3.015 -6.111,4.197C-6.111,4.716 -5.889,5.155 -5.443,5.517C-5.017,5.918 -4.311,6.118 -3.326,6.118C-2.085,6.137 -1.208,5.986 -0.697,5.664C-0.232,5.342 0,4.608 0,3.465L0,2.365ZM0,7.465L-0.057,7.465C-0.331,7.982 -0.756,8.363 -1.333,8.607C-1.9,8.861 -2.685,8.988 -3.687,8.988C-5.333,8.969 -6.599,8.519 -7.488,7.64C-8.424,6.781 -8.892,5.682 -8.892,4.344C-8.892,3.066 -8.485,2.006 -7.672,1.166C-6.859,0.307 -5.668,-0.132 -4.099,-0.152L0,-0.152L0,-1.756C0.02,-3.1 -0.988,-3.752 -3.022,-3.714C-3.76,-3.714 -4.341,-3.635 -4.767,-3.479C-5.212,-3.291 -5.562,-2.978 -5.817,-2.536L-8.144,-4.369C-7.019,-5.885 -5.36,-6.623 -3.168,-6.584C-1.316,-6.604 0.164,-6.242 1.269,-5.5C2.375,-4.739 2.937,-3.43 2.956,-1.574L2.956,8.812L0,8.812L0,7.465Z" style="fill:rgb(29,29,27);fill-rule:nonzero;"/>
    </g>
    <g transform="matrix(4.16667,0,0,4.16667,170.935,316.799)">
        <path d="M0,-3.519C-0.663,-3.519 -1.187,-3.377 -1.575,-3.092C-1.982,-2.809 -2.281,-2.436 -2.47,-1.975C-2.649,-1.515 -2.768,-1.015 -2.824,-0.477C-2.881,0.062 -2.91,0.627 -2.91,1.214C-2.91,1.753 -2.881,2.302 -2.824,2.86C-2.768,3.429 -2.649,3.943 -2.47,4.404C-2.281,4.864 -1.982,5.236 -1.575,5.521C-1.187,5.814 -0.663,5.961 0,5.961C0.7,5.961 1.253,5.824 1.661,5.55C2.067,5.265 2.356,4.904 2.526,4.462C2.715,4.002 2.843,3.482 2.91,2.904C2.928,2.355 2.938,1.793 2.938,1.214C2.938,0.607 2.928,0.013 2.91,-0.565C2.843,-1.104 2.715,-1.603 2.526,-2.064C2.356,-2.524 2.067,-2.887 1.661,-3.151C1.253,-3.397 0.7,-3.519 0,-3.519M-5.866,-12.526L-2.91,-12.526L-2.91,-4.762C-2.371,-5.299 -1.78,-5.739 -1.137,-6.081C-0.542,-6.403 0.135,-6.565 0.891,-6.565C2.697,-6.516 4.016,-5.852 4.848,-4.573C5.253,-4.094 5.531,-3.463 5.682,-2.682C5.823,-1.911 5.894,-0.612 5.894,1.214C5.894,3.011 5.823,4.3 5.681,5.082C5.53,5.902 5.251,6.55 4.845,7.029C4.438,7.615 3.904,8.084 3.243,8.435C2.591,8.796 1.806,8.988 0.89,9.007C-0.66,8.968 -1.927,8.38 -2.91,7.244L-2.91,8.832L-5.866,8.832L-5.866,-12.526Z" style="fill:rgb(29,29,27);fill-rule:nonzero;"/>
    </g>
    <g transform="matrix(4.16667,0,0,4.16667,208.877,353.596)">
        <path d="M0,-21.357L2.956,-21.357L2.956,-3.911C2.956,-3.216 3.326,-2.87 4.066,-2.87L5.09,-2.87L5.09,0L3.771,0C2.694,0 1.805,-0.277 1.106,-0.832C0.369,-1.396 0,-2.344 0,-3.677L0,-21.357Z" style="fill:rgb(29,29,27);fill-rule:nonzero;"/>
    </g>
    <g transform="matrix(4.16667,0,0,4.16667,273.82,327.606)">
        <path d="M0,-2.726C-0.038,-3.913 -0.346,-4.811 -0.924,-5.42C-1.493,-5.998 -2.223,-6.289 -3.114,-6.289C-4.005,-6.289 -4.735,-5.998 -5.304,-5.42C-5.864,-4.811 -6.172,-3.913 -6.229,-2.726L0,-2.726ZM-6.229,-0.209C-6.229,1.012 -5.888,1.941 -5.206,2.576C-4.572,3.22 -3.739,3.544 -2.708,3.544C-1.505,3.544 -0.431,3.05 0.515,2.062L2.659,3.953C1.156,5.613 -0.613,6.433 -2.646,6.414C-3.421,6.414 -4.178,6.296 -4.916,6.062C-5.284,5.935 -5.644,5.763 -5.993,5.548C-6.362,5.363 -6.707,5.134 -7.029,4.861C-7.653,4.295 -8.159,3.503 -8.546,2.488C-8.972,1.511 -9.185,0.242 -9.185,-1.321C-9.185,-2.825 -9,-4.075 -8.631,-5.071C-8.263,-6.086 -7.79,-6.887 -7.213,-7.473C-6.627,-8.069 -5.97,-8.498 -5.242,-8.762C-4.523,-9.026 -3.814,-9.159 -3.114,-9.159C-1.431,-9.139 -0.008,-8.567 1.155,-7.444C2.337,-6.301 2.937,-4.729 2.956,-2.726L2.956,-0.209L-6.229,-0.209Z" style="fill:rgb(29,29,27);fill-rule:nonzero;"/>
    </g>
    <g transform="matrix(4.16667,0,0,4.16667,298.102,352.718)">
        <path d="M0,-14.994L2.962,-14.994L2.962,-13.383L3.019,-13.383C4.024,-14.584 5.348,-15.185 6.989,-15.185C8.043,-15.166 8.893,-14.984 9.538,-14.642C10.172,-14.262 10.753,-13.779 11.281,-13.193C12.473,-14.541 14.069,-15.205 16.072,-15.185C17.332,-15.185 18.484,-14.74 19.529,-13.851C20.564,-12.953 21.102,-11.635 21.141,-9.896L21.141,0.211L18.182,0.211L18.182,-8.853C18.182,-9.92 17.898,-10.731 17.332,-11.289C16.766,-11.855 16.035,-12.14 15.141,-12.14C14.247,-12.14 13.511,-11.855 12.935,-11.289C12.349,-10.731 12.056,-9.92 12.056,-8.853L12.056,0.211L9.1,0.211L9.1,-8.853C9.1,-9.92 8.816,-10.731 8.25,-11.289C7.673,-11.855 6.938,-12.14 6.044,-12.14C5.15,-12.14 4.419,-11.855 3.854,-11.289C3.257,-10.731 2.959,-9.92 2.959,-8.853L2.959,0.211L0,0.211L0,-14.994Z" style="fill:rgb(29,29,27);fill-rule:nonzero;"/>
    </g>
    <g transform="matrix(4.16667,0,0,4.16667,437.826,321.794)">
        <path d="M0,0.045C0,-1.043 -0.047,-1.837 -0.142,-2.336C-0.237,-2.816 -0.432,-3.238 -0.726,-3.601C-0.943,-3.943 -1.266,-4.213 -1.692,-4.409C-2.1,-4.615 -2.574,-4.718 -3.114,-4.718C-3.617,-4.718 -4.081,-4.615 -4.508,-4.408C-4.916,-4.213 -5.248,-3.943 -5.503,-3.601C-5.759,-3.238 -5.944,-2.816 -6.058,-2.336C-6.172,-1.837 -6.229,-1.053 -6.229,0.016C-6.229,1.074 -6.172,1.848 -6.058,2.338C-5.944,2.838 -5.759,3.277 -5.503,3.66C-5.248,3.954 -4.916,4.214 -4.508,4.44C-4.081,4.654 -3.617,4.763 -3.114,4.763C-2.574,4.763 -2.1,4.654 -1.692,4.44C-1.266,4.214 -0.943,3.954 -0.726,3.66C-0.432,3.277 -0.237,2.838 -0.142,2.338C-0.047,1.848 0,1.083 0,0.045M-9.185,0.016C-9.185,-1.59 -9.057,-2.822 -8.801,-3.684C-8.537,-4.523 -8.13,-5.233 -7.582,-5.81C-7.175,-6.316 -6.607,-6.767 -5.879,-7.166C-5.16,-7.545 -4.237,-7.744 -3.112,-7.764C-1.948,-7.744 -1.007,-7.543 -0.288,-7.162C0.421,-6.762 0.97,-6.309 1.358,-5.801C1.942,-5.225 2.357,-4.516 2.603,-3.676C2.838,-2.816 2.956,-1.586 2.956,0.016C2.956,1.617 2.838,2.838 2.602,3.678C2.356,4.518 1.939,5.244 1.354,5.859C1.164,6.084 0.933,6.305 0.658,6.52C0.413,6.764 0.096,6.973 -0.292,7.149C-1.011,7.568 -1.952,7.789 -3.114,7.809C-4.239,7.789 -5.162,7.568 -5.88,7.149C-6.608,6.768 -7.175,6.338 -7.582,5.859C-8.131,5.244 -8.537,4.518 -8.802,3.678C-9.057,2.838 -9.185,1.617 -9.185,0.016" style="fill:rgb(29,29,27);fill-rule:nonzero;"/>
    </g>
    <g transform="matrix(4.16667,0,0,4.16667,464.396,309.529)">
        <path d="M0,5.932C1.205,7.233 2.76,7.882 4.667,7.882C5.52,7.882 6.217,7.711 6.758,7.369C7.298,7.028 7.569,6.549 7.569,5.934C7.569,5.387 7.408,5.006 7.085,4.791C6.753,4.567 6.313,4.444 5.763,4.424L3.147,4.19C1.906,4.073 0.896,3.643 0.12,2.901C-0.677,2.178 -1.084,1.168 -1.103,-0.131C-1.084,-1.694 -0.549,-2.866 0.501,-3.648C1.524,-4.429 2.821,-4.82 4.392,-4.82C5.074,-4.82 5.684,-4.775 6.224,-4.687C6.763,-4.589 7.27,-4.453 7.743,-4.277C8.652,-3.897 9.466,-3.384 10.186,-2.74L8.351,-0.53C7.782,-0.954 7.18,-1.304 6.545,-1.58C5.919,-1.826 5.199,-1.95 4.384,-1.95C3.455,-1.95 2.806,-1.779 2.436,-1.436C2.047,-1.093 1.853,-0.654 1.853,-0.117C1.833,0.226 1.98,0.524 2.294,0.778C2.578,1.062 3.081,1.243 3.801,1.321L6.246,1.512C7.781,1.629 8.89,2.108 9.573,2.95C10.208,3.77 10.525,4.812 10.525,6.073C10.506,7.549 9.924,8.689 8.779,9.491C7.644,10.312 6.191,10.733 4.421,10.752C2.019,10.752 -0.144,9.844 -2.064,8.029L0,5.932Z" style="fill:rgb(29,29,27);fill-rule:nonzero;"/>
    </g>
    <g transform="matrix(4.16667,0,0,4.16667,572.135,316.799)">
        <path d="M0,-3.519C-0.701,-3.519 -1.234,-3.397 -1.604,-3.151C-2.012,-2.887 -2.31,-2.524 -2.499,-2.064C-2.679,-1.603 -2.797,-1.104 -2.854,-0.565C-2.91,0.013 -2.938,0.607 -2.938,1.214C-2.938,1.793 -2.91,2.355 -2.854,2.904C-2.797,3.482 -2.679,4.002 -2.499,4.462C-2.31,4.904 -2.012,5.265 -1.604,5.55C-1.234,5.824 -0.701,5.961 0,5.961C0.699,5.961 1.254,5.814 1.66,5.521C2.066,5.236 2.346,4.864 2.498,4.404C2.688,3.943 2.814,3.429 2.881,2.86C2.9,2.302 2.908,1.753 2.908,1.214C2.908,0.627 2.9,0.062 2.881,-0.477C2.814,-1.015 2.688,-1.515 2.498,-1.975C2.346,-2.436 2.066,-2.809 1.66,-3.092C1.254,-3.377 0.699,-3.519 0,-3.519M2.908,7.244C1.936,8.38 0.664,8.968 -0.904,9.007C-1.793,8.988 -2.554,8.796 -3.188,8.435C-3.849,8.084 -4.401,7.615 -4.846,7.028C-5.252,6.548 -5.521,5.899 -5.654,5.078C-5.814,4.296 -5.895,3.006 -5.895,1.209C-5.895,-0.62 -5.814,-1.919 -5.654,-2.692C-5.521,-3.473 -5.252,-4.104 -4.846,-4.582C-4.014,-5.856 -2.7,-6.516 -0.904,-6.565C-0.148,-6.565 0.551,-6.404 1.193,-6.083C1.789,-5.744 2.361,-5.306 2.908,-4.772L2.908,-12.526L5.865,-12.526L5.865,8.832L2.908,8.832L2.908,7.244Z" style="fill:rgb(29,29,27);fill-rule:nonzero;"/>
    </g>
    <g transform="matrix(4.16667,0,0,4.16667,645.17,327.606)">
        <path d="M0,-2.726C-0.038,-3.913 -0.346,-4.811 -0.924,-5.42C-1.493,-5.998 -2.223,-6.289 -3.114,-6.289C-4.005,-6.289 -4.735,-5.998 -5.304,-5.42C-5.863,-4.811 -6.171,-3.913 -6.228,-2.726L0,-2.726ZM-6.228,-0.209C-6.228,1.012 -5.888,1.941 -5.206,2.576C-4.571,3.22 -3.739,3.544 -2.707,3.544C-1.505,3.544 -0.431,3.05 0.516,2.062L2.659,3.953C1.156,5.613 -0.612,6.433 -2.646,6.414C-3.421,6.414 -4.178,6.296 -4.915,6.062C-5.284,5.935 -5.643,5.763 -5.992,5.548C-6.361,5.363 -6.707,5.134 -7.028,4.861C-7.652,4.295 -8.158,3.503 -8.546,2.488C-8.972,1.511 -9.185,0.242 -9.185,-1.321C-9.185,-2.825 -9,-4.075 -8.631,-5.071C-8.263,-6.086 -7.79,-6.887 -7.213,-7.473C-6.627,-8.069 -5.97,-8.498 -5.241,-8.762C-4.522,-9.026 -3.813,-9.159 -3.114,-9.159C-1.431,-9.139 -0.008,-8.567 1.155,-7.444C2.337,-6.301 2.938,-4.729 2.957,-2.726L2.957,-0.209L-6.228,-0.209Z" style="fill:rgb(29,29,27);fill-rule:nonzero;"/>
    </g>
    <g transform="matrix(4.16667,0,0,4.16667,696.924,352.718)">
        <path d="M0,-14.994L2.961,-14.994L2.961,-13.383L3.019,-13.383C4.024,-14.584 5.348,-15.185 6.988,-15.185C8.043,-15.166 8.893,-14.984 9.537,-14.642C10.172,-14.262 10.753,-13.779 11.28,-13.193C12.472,-14.541 14.069,-15.205 16.071,-15.185C17.331,-15.185 18.483,-14.74 19.528,-13.851C20.563,-12.953 21.101,-11.635 21.14,-9.896L21.14,0.211L18.181,0.211L18.181,-8.853C18.181,-9.92 17.897,-10.731 17.331,-11.289C16.765,-11.855 16.034,-12.14 15.141,-12.14C14.246,-12.14 13.511,-11.855 12.935,-11.289C12.349,-10.731 12.056,-9.92 12.056,-8.853L12.056,0.211L9.099,0.211L9.099,-8.853C9.099,-9.92 8.815,-10.731 8.249,-11.289C7.673,-11.855 6.937,-12.14 6.044,-12.14C5.149,-12.14 4.419,-11.855 3.853,-11.289C3.257,-10.731 2.959,-9.92 2.959,-8.853L2.959,0.211L0,0.211L0,-14.994Z" style="fill:rgb(29,29,27);fill-rule:nonzero;"/>
    </g>
    <g transform="matrix(4.16667,0,0,4.16667,833.655,316.88)">
        <path d="M0,2.365L-3.553,2.365C-5.277,2.404 -6.131,3.015 -6.11,4.197C-6.11,4.716 -5.889,5.155 -5.443,5.517C-5.017,5.918 -4.311,6.118 -3.325,6.118C-2.084,6.137 -1.208,5.986 -0.696,5.664C-0.231,5.342 0,4.608 0,3.465L0,2.365ZM0,7.465L-0.057,7.465C-0.33,7.982 -0.756,8.363 -1.333,8.607C-1.9,8.861 -2.685,8.988 -3.687,8.988C-5.332,8.969 -6.599,8.519 -7.487,7.64C-8.424,6.781 -8.892,5.682 -8.892,4.344C-8.892,3.066 -8.484,2.006 -7.672,1.166C-6.858,0.307 -5.667,-0.132 -4.098,-0.152L0,-0.152L0,-1.756C0.02,-3.1 -0.987,-3.752 -3.021,-3.714C-3.76,-3.714 -4.341,-3.635 -4.767,-3.479C-5.211,-3.291 -5.562,-2.978 -5.816,-2.536L-8.144,-4.369C-7.019,-5.885 -5.36,-6.623 -3.167,-6.584C-1.315,-6.604 0.164,-6.242 1.27,-5.5C2.375,-4.739 2.938,-3.43 2.957,-1.574L2.957,8.812L0,8.812L0,7.465Z" style="fill:rgb(29,29,27);fill-rule:nonzero;"/>
    </g>
    <g transform="matrix(4.16667,0,0,4.16667,861.426,352.801)">
        <path d="M0,-15.014L2.957,-15.014L2.957,-13.403L3.019,-13.403C3.993,-14.604 5.271,-15.205 6.851,-15.205C8.033,-15.186 9.065,-14.796 9.945,-14.037L7.786,-11.396C7.161,-11.905 6.513,-12.16 5.84,-12.16C5.082,-12.16 4.434,-11.905 3.895,-11.397C3.288,-10.898 2.976,-10.091 2.957,-8.977L2.957,0.191L0,0.191L0,-15.014Z" style="fill:rgb(29,29,27);fill-rule:nonzero;"/>
    </g>
    <g transform="matrix(4.16667,0,0,4.16667,950.476,300.292)">
        <path d="M0,10.346C-0.644,11.104 -1.4,11.72 -2.271,12.196C-3.142,12.692 -4.149,12.95 -5.294,12.969C-7.031,12.969 -8.557,12.358 -9.87,11.137C-11.229,9.916 -11.929,7.94 -11.967,5.205C-11.929,2.442 -11.229,0.44 -9.868,-0.8C-8.555,-2.021 -7.027,-2.623 -5.288,-2.603C-4.145,-2.584 -3.138,-2.34 -2.269,-1.872C-1.398,-1.394 -0.643,-0.756 0,0.043L-2.185,2.045C-2.933,1.016 -3.93,0.483 -5.179,0.443C-7.695,0.405 -8.973,1.991 -9.01,5.205C-8.973,8.399 -7.695,9.972 -5.179,9.923C-3.931,9.904 -2.933,9.374 -2.186,8.336L0,10.346Z" style="fill:rgb(29,29,27);fill-rule:nonzero;"/>
    </g>
    <g transform="matrix(4.16667,0,0,4.16667,990.523,316.88)">
        <path d="M0,2.365L-3.553,2.365C-5.277,2.404 -6.131,3.015 -6.111,4.197C-6.111,4.716 -5.889,5.155 -5.443,5.517C-5.018,5.918 -4.311,6.118 -3.326,6.118C-2.084,6.137 -1.209,5.986 -0.697,5.664C-0.232,5.342 0,4.608 0,3.465L0,2.365ZM0,7.465L-0.057,7.465C-0.33,7.982 -0.756,8.363 -1.334,8.607C-1.9,8.861 -2.686,8.988 -3.688,8.988C-5.332,8.969 -6.6,8.519 -7.488,7.64C-8.424,6.781 -8.893,5.682 -8.893,4.344C-8.893,3.066 -8.484,2.006 -7.672,1.166C-6.859,0.307 -5.668,-0.132 -4.098,-0.152L0,-0.152L0,-1.756C0.02,-3.1 -0.988,-3.752 -3.021,-3.714C-3.76,-3.714 -4.342,-3.635 -4.768,-3.479C-5.211,-3.291 -5.562,-2.978 -5.816,-2.536L-8.145,-4.369C-7.02,-5.885 -5.361,-6.623 -3.168,-6.584C-1.316,-6.604 0.164,-6.242 1.27,-5.5C2.375,-4.739 2.938,-3.43 2.957,-1.574L2.957,8.812L0,8.812L0,7.465Z" style="fill:rgb(29,29,27);fill-rule:nonzero;"/>
    </g>
    <g transform="matrix(4.16667,0,0,4.16667,1020.08,309.529)">
        <path d="M0,5.932C1.205,7.233 2.76,7.882 4.668,7.882C5.521,7.882 6.217,7.711 6.758,7.369C7.299,7.028 7.568,6.549 7.568,5.934C7.568,5.387 7.408,5.006 7.086,4.791C6.754,4.567 6.312,4.444 5.764,4.424L3.148,4.19C1.906,4.073 0.896,3.643 0.119,2.901C-0.676,2.178 -1.084,1.168 -1.104,-0.131C-1.084,-1.694 -0.549,-2.866 0.502,-3.648C1.523,-4.429 2.82,-4.82 4.393,-4.82C5.074,-4.82 5.686,-4.775 6.225,-4.687C6.764,-4.589 7.27,-4.453 7.744,-4.277C8.652,-3.897 9.467,-3.384 10.186,-2.74L8.352,-0.53C7.783,-0.954 7.182,-1.304 6.547,-1.58C5.92,-1.826 5.199,-1.95 4.385,-1.95C3.455,-1.95 2.807,-1.779 2.438,-1.436C2.049,-1.093 1.854,-0.654 1.854,-0.117C1.834,0.226 1.98,0.524 2.295,0.778C2.578,1.062 3.08,1.243 3.801,1.321L6.246,1.512C7.781,1.629 8.891,2.108 9.572,2.95C10.209,3.77 10.525,4.812 10.525,6.073C10.506,7.549 9.924,8.689 8.779,9.491C7.645,10.312 6.191,10.733 4.422,10.752C2.02,10.752 -0.143,9.844 -2.064,8.029L0,5.932Z" style="fill:rgb(29,29,27);fill-rule:nonzero;"/>
    </g>
    <g transform="matrix(4.16667,0,0,4.16667,0,215.327)">
        <path d="M0,-51.257L19.242,-51.257C24.123,-51.21 27.79,-49.944 30.242,-47.461C32.717,-44.952 33.954,-41.636 33.954,-37.511C34.001,-35.402 33.513,-33.385 32.49,-31.465C31.968,-30.55 31.219,-29.683 30.244,-28.862C29.268,-27.995 28.064,-27.211 26.635,-26.507L26.635,-26.366C29.344,-25.64 31.393,-24.174 32.781,-21.972C34.079,-19.698 34.728,-17.226 34.728,-14.554C34.682,-10.124 33.342,-6.621 30.706,-4.043C28.093,-1.347 24.833,0 20.925,0L0,0L0,-51.257Z" style="fill:rgb(29,29,27);fill-rule:nonzero;"/>
    </g>
    <g transform="matrix(4.16667,0,0,4.16667,180.323,213.425)">
        <path d="M0,-36.035L7.095,-36.035L7.095,-32.168L7.243,-32.168C9.582,-35.051 12.648,-36.492 16.441,-36.492C19.279,-36.445 21.756,-35.511 23.867,-33.69L18.686,-27.35C17.186,-28.572 15.629,-29.183 14.016,-29.183C12.197,-29.183 10.64,-28.573 9.345,-27.352C7.89,-26.155 7.14,-24.219 7.095,-21.544L7.095,0.457L0,0.457L0,-36.035Z" style="fill:rgb(29,29,27);fill-rule:nonzero;"/>
    </g>
    <g transform="matrix(4.16667,0,0,4.16667,368.99,127.213)">
        <path d="M0,5.676L-8.526,5.676C-12.667,5.77 -14.714,7.236 -14.666,10.074C-14.666,11.317 -14.133,12.372 -13.063,13.239C-12.04,14.201 -10.346,14.683 -7.981,14.683C-5.003,14.73 -2.899,14.366 -1.671,13.592C-0.558,12.818 0,11.059 0,8.315L0,5.676ZM0,17.915L-0.136,17.915C-0.794,19.156 -1.815,20.071 -3.199,20.656C-4.561,21.265 -6.443,21.57 -8.849,21.57C-12.797,21.523 -15.838,20.446 -17.97,18.336C-20.217,16.274 -21.34,13.638 -21.34,10.427C-21.34,7.358 -20.364,4.815 -18.413,2.799C-16.462,0.737 -13.603,-0.317 -9.836,-0.364L0,-0.364L0,-4.215C0.047,-7.441 -2.37,-9.007 -7.252,-8.914C-9.023,-8.914 -10.419,-8.726 -11.44,-8.348C-12.508,-7.901 -13.348,-7.147 -13.96,-6.088L-19.544,-10.487C-16.846,-14.123 -12.864,-15.894 -7.603,-15.801C-3.157,-15.848 0.393,-14.98 3.047,-13.199C5.7,-11.371 7.05,-8.23 7.096,-3.778L7.096,21.148L0,21.148L0,17.915Z" style="fill:rgb(29,29,27);fill-rule:nonzero;"/>
    </g>
    <g transform="matrix(4.16667,0,0,4.16667,441.647,213.425)">
        <path d="M0,-36.035L7.096,-36.035L7.096,-32.168L7.231,-32.168C9.567,-35.051 12.63,-36.492 16.418,-36.492C19.344,-36.492 22.021,-35.425 24.447,-33.293C26.852,-31.136 28.11,-27.972 28.225,-23.801L28.225,0.457L21.129,0.457L21.129,-21.297C21.129,-23.855 20.471,-25.803 19.153,-27.141C17.859,-28.502 16.189,-29.183 14.146,-29.183C12.103,-29.183 10.422,-28.502 9.105,-27.141C7.765,-25.803 7.096,-23.855 7.096,-21.297L7.096,0.457L0,0.457L0,-36.035Z" style="fill:rgb(29,29,27);fill-rule:nonzero;"/>
    </g>
    <g transform="matrix(4.16667,0,0,4.16667,661.723,127.015)">
        <path d="M0,-8.445C-1.681,-8.445 -2.964,-8.151 -3.85,-7.563C-4.826,-6.928 -5.542,-6.058 -5.995,-4.953C-6.427,-3.846 -6.711,-2.647 -6.847,-1.354C-6.983,0.034 -7.051,1.456 -7.051,2.914C-7.051,4.302 -6.983,5.655 -6.847,6.971C-6.711,8.359 -6.427,9.605 -5.995,10.71C-5.542,11.769 -4.826,12.638 -3.85,13.32C-2.964,13.979 -1.681,14.308 0,14.308C1.681,14.308 3.009,13.955 3.985,13.25C4.962,12.568 5.632,11.674 5.995,10.569C6.449,9.463 6.755,8.23 6.915,6.865C6.96,5.525 6.982,4.208 6.982,2.914C6.982,1.504 6.96,0.151 6.915,-1.142C6.755,-2.435 6.449,-3.635 5.995,-4.741C5.632,-5.845 4.962,-6.739 3.985,-7.422C3.009,-8.103 1.681,-8.445 0,-8.445M6.982,17.386C4.646,20.114 1.595,21.524 -2.17,21.617C-4.303,21.57 -6.128,21.113 -7.647,20.245C-9.235,19.401 -10.563,18.274 -11.629,16.867C-12.604,15.719 -13.25,14.159 -13.567,12.188C-13.953,10.312 -14.146,7.216 -14.146,2.9C-14.146,-1.487 -13.953,-4.606 -13.567,-6.459C-13.25,-8.336 -12.604,-9.849 -11.629,-10.998C-9.633,-14.052 -6.479,-15.637 -2.17,-15.754C-0.354,-15.754 1.323,-15.368 2.865,-14.599C4.295,-13.783 5.667,-12.734 6.982,-11.452L6.982,-30.062L14.078,-30.062L14.078,21.195L6.982,21.195L6.982,17.386Z" style="fill:rgb(29,29,27);fill-rule:nonzero;"/>
    </g>
    <g transform="matrix(4.16667,0,0,4.16667,761.129,215.327)">
        <path d="M0,-51.257L31.718,-51.257L31.718,-43.948L7.518,-43.948L7.518,-29.281L28.175,-29.281L28.175,-22.398L7.518,-22.398L7.518,-7.308L31.718,-7.308L31.718,0L0,0L0,-51.257Z" style="fill:rgb(29,29,27);fill-rule:nonzero;"/>
    </g>
    <g transform="matrix(4.16667,0,0,4.16667,1062.99,61.425)">
        <path d="M0,22.617C-1.09,27.367 -3.168,31.018 -6.234,33.568C-9.391,36.095 -13.127,37.359 -17.441,37.359C-21.346,37.265 -24.602,36.282 -27.211,34.406C-29.866,32.601 -31.794,30.516 -32.997,28.148C-33.36,27.375 -33.689,26.637 -33.984,25.933C-34.257,25.207 -34.483,24.293 -34.665,23.191C-35.006,21.129 -35.176,17.168 -35.176,11.308C-35.176,5.355 -35.005,1.371 -34.665,-0.645C-34.302,-2.66 -33.745,-4.289 -32.996,-5.532C-31.793,-7.899 -29.863,-10.008 -27.207,-11.86C-24.598,-13.735 -21.34,-14.695 -17.436,-14.742C-12.645,-14.695 -8.74,-13.233 -5.721,-10.355C-2.701,-7.453 -0.795,-3.861 0,0.422L-7.98,0.422C-8.594,-1.645 -9.709,-3.406 -11.322,-4.862C-13.006,-6.248 -15.051,-6.964 -17.461,-7.011C-19.234,-6.964 -20.758,-6.6 -22.031,-5.92C-23.328,-5.215 -24.375,-4.334 -25.17,-3.277C-26.146,-2.174 -26.795,-0.752 -27.113,0.986C-27.477,2.818 -27.658,6.259 -27.658,11.308C-27.658,16.358 -27.477,19.776 -27.113,21.56C-26.795,23.346 -26.146,24.79 -25.168,25.894C-24.373,26.951 -23.326,27.808 -22.029,28.466C-20.756,29.241 -19.232,29.628 -17.457,29.628C-13.227,29.628 -10.064,27.291 -7.971,22.617L0,22.617Z" style="fill:rgb(29,29,27);fill-rule:nonzero;"/>
    </g>
</svg>
